<svg id="Layer_1" data-name="Layer 1" xmlns="http://www.w3.org/2000/svg" xmlns:xlink="http://www.w3.org/1999/xlink" viewBox="0 0 512 512"><defs><style>.cls-1{fill:none;}.cls-2{clip-path:url(#clip-path);}.cls-3{fill:#fff;}</style><clipPath id="clip-path"><path class="cls-1" d="M286.28,283.18H77.13a56.71,56.71,0,0,1,56.8-56.42l95.13.15-74.39-72.48H125.25A124.12,124.12,0,0,0,1.12,278.56v77.15l327.12,0h0a49.68,49.68,0,0,1-49.59,49.68l-277.53.49v76.68h294A102.78,102.78,0,0,0,397,392.83C397.58,388.54,286.28,283.18,286.28,283.18ZM386.8,226.34A130.11,130.11,0,0,0,504.68,96.81V29.49h-432L147,104.84H428.38a47.31,47.31,0,0,1-46.72,47.31l-184.08,2.28,72.49,72.48h21.7L417.3,352.44l93.58-2Z"/></clipPath></defs><g class="cls-2"><rect class="cls-3" x="-3.99" y="24.72" width="514.61" height="462.6"/></g></svg>