<svg id="Layer_1" data-name="Layer 1" xmlns="http://www.w3.org/2000/svg" xmlns:xlink="http://www.w3.org/1999/xlink" viewBox="0 0 605 100"><defs><style>.cls-1{fill:none;}.cls-2{fill:#7e30e1;}.cls-3{clip-path:url(#clip-path);}.cls-4{fill:url(#linear-gradient);}</style><clipPath id="clip-path"><path class="cls-1" d="M60.12,52.93H17.6A11.53,11.53,0,0,1,29.15,41.46l19.34,0L33.36,26.76h-6A25.24,25.24,0,0,0,2.14,52V67.68H68.65a10.1,10.1,0,0,1-10.08,10.1l-56.43.1V93.46H61.92A20.88,20.88,0,0,0,82.64,75.23C82.75,74.36,60.12,52.93,60.12,52.93ZM80.56,41.38a26.47,26.47,0,0,0,24-26.34V1.35H16.69L31.81,16.67H89a9.62,9.62,0,0,1-9.51,9.62l-37.42.47L56.83,41.49h4.41L86.76,67l19-.41Z"/></clipPath><linearGradient id="linear-gradient" x1="3.75" y1="97.09" x2="103.09" y2="-2.26" gradientUnits="userSpaceOnUse"><stop offset="0" stop-color="#7e30e1"/><stop offset="0.17" stop-color="#8535e1"/><stop offset="0.41" stop-color="#9a41e2"/><stop offset="0.71" stop-color="#bb56e3"/><stop offset="1" stop-color="#e26ee5"/></linearGradient></defs><path d="M126.25,68.17q-6.09-4.52-6.56-12.93h16.14a6.06,6.06,0,0,0,1.69,4.17,6.16,6.16,0,0,0,7.22.27,3.46,3.46,0,0,0,1.35-2.9,4.1,4.1,0,0,0-2.24-3.71,39.78,39.78,0,0,0-7.25-2.93A64.56,64.56,0,0,1,128,46.7a16.35,16.35,0,0,1-5.71-4.86,13.43,13.43,0,0,1-2.44-8.38,15.27,15.27,0,0,1,2.63-9,16.25,16.25,0,0,1,7.26-5.68,27.15,27.15,0,0,1,10.5-1.93q9.5,0,15.17,4.44t6.06,12.47H145a4.84,4.84,0,0,0-1.5-3.7,5.4,5.4,0,0,0-3.67-1.24,3.93,3.93,0,0,0-2.78,1A3.69,3.69,0,0,0,136,32.69a3.54,3.54,0,0,0,1.2,2.67,10.89,10.89,0,0,0,3,1.93q1.77.81,5.25,2a66.49,66.49,0,0,1,8.53,3.51,17.38,17.38,0,0,1,5.79,4.87,12.5,12.5,0,0,1,2.43,7.91,16.07,16.07,0,0,1-2.43,8.73,16.74,16.74,0,0,1-7,6.1,24.5,24.5,0,0,1-10.84,2.23Q132.36,72.68,126.25,68.17Z"/><path d="M203.61,63.27h-19.3l-2.93,8.87H165.47l19.84-54.43h17.45l19.77,54.43h-16Zm-3.78-11.59L194,34.08l-5.79,17.6Z"/><path d="M242.6,60.56h16.91V72.14h-32V17.71H242.6Z"/><path d="M280.51,29.84v8.87h17.37V50.22H280.51V60H300.2V72.14H265.38V17.71H300.2V29.84Z"/><path d="M322.82,29.84v8.87h17.37V50.22H322.82V60H342.5V72.14H307.68V17.71H342.5V29.84Z"/><path d="M413.53,17.71V72.14H398.4v-30l-10.27,30H375.47L365.12,41.88V72.14H350V17.71h18.3L382,53.07l13.36-35.36Z"/><path d="M452.75,72.14,439.4,49.6h-10V72.14H424v-54h16.21q9,0,13.71,4.32a14.76,14.76,0,0,1,4.67,11.35,15.34,15.34,0,0,1-3.36,10q-3.36,4.13-9.92,5.36l13.9,22.93ZM429.44,45.2h10.88q6.33,0,9.54-3.09a11,11,0,0,0,3.2-8.26q0-5.33-3.09-8.22t-9.73-2.9h-10.8Z"/><path d="M500.62,59.33H476.07l-4.71,12.81h-5.72l19.69-53.27h6.1L511,72.14h-5.71ZM499,54.85,488.34,25.67,477.69,54.85Z"/><path d="M523.16,67.36h27.57v4.78h-33.9V67.82L544,23H517.3V18.18h33V22.5Z"/><path d="M591.49,59.33H566.94l-4.71,12.81h-5.71L576.2,18.87h6.1l19.61,53.27H596.2Zm-1.62-4.48L579.21,25.67,568.56,54.85Z"/><path class="cls-2" d="M129.72,83.7v2h-6.43v4.47h5v2h-5v6.63H120.8V83.7Z"/><path class="cls-2" d="M173.31,83.7V98.85h-2.48V83.7Z"/><path class="cls-2" d="M225.17,83.7v2h-4V98.85h-2.48V85.72H214.6v-2Z"/><path class="cls-2" d="M266.69,87.25a7.37,7.37,0,0,1,2.81-2.76,8.27,8.27,0,0,1,8.2.2,6.72,6.72,0,0,1,2.73,3.37h-3a4,4,0,0,0-1.64-1.79,4.87,4.87,0,0,0-2.42-.59,5.31,5.31,0,0,0-2.68.68,4.66,4.66,0,0,0-1.84,1.94,6.79,6.79,0,0,0,0,5.88,4.69,4.69,0,0,0,1.84,1.95,5.22,5.22,0,0,0,2.68.69,4.87,4.87,0,0,0,2.42-.59,4,4,0,0,0,1.64-1.79h3a6.66,6.66,0,0,1-2.73,3.36,8.32,8.32,0,0,1-8.21.19,7.35,7.35,0,0,1-2.8-2.76,8.17,8.17,0,0,1,0-8Z"/><path class="cls-2" d="M325.15,98a7.4,7.4,0,0,1-2.81-2.77,8.26,8.26,0,0,1,0-8,7.37,7.37,0,0,1,2.81-2.76,8.2,8.2,0,0,1,7.81,0,7.35,7.35,0,0,1,2.8,2.76,8.33,8.33,0,0,1,0,8A7.37,7.37,0,0,1,333,98a8.2,8.2,0,0,1-7.81,0Zm6.58-1.85a4.87,4.87,0,0,0,1.84-2,6.32,6.32,0,0,0,.66-3,6.25,6.25,0,0,0-.66-2.94,4.73,4.73,0,0,0-1.84-1.94,5.64,5.64,0,0,0-5.37,0,4.66,4.66,0,0,0-1.84,1.94,6.25,6.25,0,0,0-.66,2.94,6.32,6.32,0,0,0,.66,3,4.8,4.8,0,0,0,1.84,2,5.64,5.64,0,0,0,5.37,0Z"/><path class="cls-2" d="M387.21,84.62A6.71,6.71,0,0,1,390,87.28a8,8,0,0,1,1,4,7.84,7.84,0,0,1-1,4,6.57,6.57,0,0,1-2.82,2.6,9.29,9.29,0,0,1-4.24.91H378V83.7H383A9.29,9.29,0,0,1,387.21,84.62Zm-.16,10.76a5.55,5.55,0,0,0,1.42-4,5.74,5.74,0,0,0-1.42-4.12A5.36,5.36,0,0,0,383,85.72h-2.46v11.1H383A5.46,5.46,0,0,0,387.05,95.38Z"/><path class="cls-2" d="M441.47,84.62a6.68,6.68,0,0,1,2.81,2.66,8,8,0,0,1,1,4,7.84,7.84,0,0,1-1,4,6.55,6.55,0,0,1-2.81,2.6,9.32,9.32,0,0,1-4.24.91h-5V83.7h5A9.32,9.32,0,0,1,441.47,84.62Zm-.16,10.76a5.54,5.54,0,0,0,1.41-4,5.74,5.74,0,0,0-1.41-4.12,5.39,5.39,0,0,0-4.08-1.49h-2.46v11.1h2.46A5.49,5.49,0,0,0,441.31,95.38Z"/><path class="cls-2" d="M489,83.7V98.85h-2.48V83.7Z"/><path class="cls-2" d="M543.54,98.85h-2.48l-7.48-11.32V98.85H531.1V83.68h2.48L541.06,95V83.68h2.48Z"/><path class="cls-2" d="M596.58,88.06a3.93,3.93,0,0,0-1.64-1.71,4.84,4.84,0,0,0-2.42-.58,5.31,5.31,0,0,0-2.68.67A4.73,4.73,0,0,0,588,88.36a6.06,6.06,0,0,0-.66,2.88,6.13,6.13,0,0,0,.66,2.89,4.76,4.76,0,0,0,1.84,1.93,5.31,5.31,0,0,0,2.68.67,4.74,4.74,0,0,0,3.3-1.13,5,5,0,0,0,1.54-3.07h-5.69v-2H600v1.94a7.41,7.41,0,0,1-1.25,3.25A7.45,7.45,0,0,1,592.52,99a7.85,7.85,0,0,1-3.9-1,7.42,7.42,0,0,1-2.8-2.76,8.24,8.24,0,0,1,0-8,7.37,7.37,0,0,1,2.81-2.76,8.27,8.27,0,0,1,8.2.2,6.74,6.74,0,0,1,2.74,3.37Z"/><g class="cls-3"><rect class="cls-4" x="1.1" y="0.38" width="104.63" height="94.06"/></g></svg>