<svg id="Layer_1" data-name="Layer 1" xmlns="http://www.w3.org/2000/svg" xmlns:xlink="http://www.w3.org/1999/xlink" viewBox="0 0 605 100"><defs><style>.cls-1{fill:none;}.cls-2{fill:#fff;}.cls-3{clip-path:url(#clip-path);}</style><clipPath id="clip-path"><path class="cls-1" d="M59.72,52.77H17A11.58,11.58,0,0,1,28.63,41.25l19.41,0L32.86,26.49h-6A25.34,25.34,0,0,0,1.53,51.82V67.57H68.28A10.14,10.14,0,0,1,58.16,77.7l-56.63.1V93.44h60a21,21,0,0,0,20.8-18.3C82.43,74.27,59.72,52.77,59.72,52.77Zm20.51-11.6a26.56,26.56,0,0,0,24.06-26.43V1H16.13L31.31,16.37H88.72A9.66,9.66,0,0,1,79.18,26l-37.56.46,14.79,14.8h4.43L86.46,66.9l19.09-.41Z"/></clipPath></defs><path class="cls-2" d="M126.09,68.06q-6.12-4.55-6.59-13h16.2a6,6,0,0,0,1.7,4.18,6.16,6.16,0,0,0,7.25.27,3.45,3.45,0,0,0,1.35-2.9,4.11,4.11,0,0,0-2.25-3.72A39.4,39.4,0,0,0,136.47,50a65.18,65.18,0,0,1-8.64-3.44,16.59,16.59,0,0,1-5.73-4.89,13.49,13.49,0,0,1-2.44-8.4,15.3,15.3,0,0,1,2.63-9,16.4,16.4,0,0,1,7.28-5.7,27.24,27.24,0,0,1,10.54-1.93q9.54,0,15.23,4.45t6.08,12.52h-16.5a4.86,4.86,0,0,0-1.51-3.72,5.43,5.43,0,0,0-3.68-1.24,3.93,3.93,0,0,0-2.79,1,3.72,3.72,0,0,0-1.09,2.87,3.55,3.55,0,0,0,1.2,2.68,11.17,11.17,0,0,0,3,1.93c1.18.54,2.94,1.23,5.26,2.06a64.39,64.39,0,0,1,8.57,3.52,17.58,17.58,0,0,1,5.81,4.88,12.54,12.54,0,0,1,2.44,7.95,16,16,0,0,1-2.44,8.75,16.83,16.83,0,0,1-7.05,6.12,24.62,24.62,0,0,1-10.89,2.25Q132.21,72.59,126.09,68.06Z"/><path class="cls-2" d="M203.73,63.14H184.36l-3,8.91h-16l19.91-54.63h17.52l19.83,54.63h-16Zm-3.8-11.63L194,33.85l-5.81,17.66Z"/><path class="cls-2" d="M242.86,60.42h17V72.05H227.67V17.42h15.19Z"/><path class="cls-2" d="M280.9,29.58V38.5h17.44V50H280.9v9.84h19.76V72.05H265.72V17.42h34.94V29.58Z"/><path class="cls-2" d="M323.36,29.58V38.5H340.8V50H323.36v9.84h19.76V72.05H308.18V17.42h34.94V29.58Z"/><path class="cls-2" d="M414.41,17.42V72.05H399.22V41.91l-10.3,30.14H376.21L365.82,41.67V72.05H350.64V17.42H369l13.72,35.49,13.4-35.49Z"/><path class="cls-2" d="M453.77,72.05l-13.4-22.63h-10V72.05H425V17.88h16.27q9.06,0,13.75,4.34a14.79,14.79,0,0,1,4.69,11.39,15.38,15.38,0,0,1-3.37,10q-3.37,4.14-10,5.38l13.95,23Zm-23.4-27H441.3q6.34,0,9.56-3.09a11,11,0,0,0,3.22-8.3q0-5.34-3.1-8.25t-9.76-2.9H430.37Z"/><path class="cls-2" d="M501.81,59.18H477.17l-4.73,12.87h-5.73l19.76-53.47h6.12l19.68,53.47h-5.73Zm-1.63-4.49L489.49,25.4,478.8,54.69Z"/><path class="cls-2" d="M524.44,67.24H552.1v4.81h-34V67.71l27.28-45H518.55V17.88h33.16v4.34Z"/><path class="cls-2" d="M593,59.18H568.37l-4.73,12.87h-5.73l19.76-53.47h6.12l19.68,53.47h-5.73Zm-1.63-4.49L580.69,25.4,570,54.69Z"/><path class="cls-2" d="M129.57,83.64v2h-6.46v4.48h5v2h-5v6.65h-2.49V83.64Z"/><path class="cls-2" d="M173.32,83.64V98.85h-2.49V83.64Z"/><path class="cls-2" d="M225.37,83.64v2h-4.05V98.85h-2.49V85.68h-4.07v-2Z"/><path class="cls-2" d="M267,87.21a7.45,7.45,0,0,1,2.83-2.77,8.31,8.31,0,0,1,8.22.2A6.78,6.78,0,0,1,280.83,88h-3a4.06,4.06,0,0,0-1.64-1.8,4.91,4.91,0,0,0-2.43-.59,5.32,5.32,0,0,0-2.69.68,4.71,4.71,0,0,0-1.85,2,6.29,6.29,0,0,0-.67,2.95,6.36,6.36,0,0,0,.67,3,4.83,4.83,0,0,0,1.85,2,5.23,5.23,0,0,0,2.69.69,4.81,4.81,0,0,0,2.43-.59,4,4,0,0,0,1.64-1.79h3a6.76,6.76,0,0,1-2.75,3.37A8,8,0,0,1,273.76,99a7.77,7.77,0,0,1-3.91-1A7.4,7.4,0,0,1,267,95.22a8.23,8.23,0,0,1,0-8Z"/><path class="cls-2" d="M325.71,98a7.29,7.29,0,0,1-2.82-2.77,7.77,7.77,0,0,1-1-4,7.67,7.67,0,0,1,1-4,7.36,7.36,0,0,1,2.82-2.77,8.24,8.24,0,0,1,7.83,0,7.26,7.26,0,0,1,2.81,2.77,7.76,7.76,0,0,1,1,4,7.86,7.86,0,0,1-1,4A7.19,7.19,0,0,1,333.54,98a8.16,8.16,0,0,1-7.83,0Zm6.6-1.85a4.8,4.8,0,0,0,1.84-2,6.31,6.31,0,0,0,.67-3,6.17,6.17,0,0,0-.67-2.95,4.69,4.69,0,0,0-1.84-2,5.68,5.68,0,0,0-5.39,0,4.69,4.69,0,0,0-1.84,2,6.17,6.17,0,0,0-.67,2.95,6.31,6.31,0,0,0,.67,3,4.8,4.8,0,0,0,1.84,2,5.68,5.68,0,0,0,5.39,0Z"/><path class="cls-2" d="M388,84.57a6.7,6.7,0,0,1,2.83,2.67,8.06,8.06,0,0,1,1,4.06,7.83,7.83,0,0,1-1,4A6.64,6.64,0,0,1,388,97.94a9.47,9.47,0,0,1-4.25.91h-5V83.64h5A9.21,9.21,0,0,1,388,84.57Zm-.16,10.8a5.54,5.54,0,0,0,1.42-4.07,5.75,5.75,0,0,0-1.42-4.14,5.4,5.4,0,0,0-4.09-1.48h-2.47V96.81h2.47A5.5,5.5,0,0,0,387.83,95.37Z"/><path class="cls-2" d="M442.45,84.57a6.61,6.61,0,0,1,2.82,2.67,8.06,8.06,0,0,1,1,4.06,7.83,7.83,0,0,1-1,4,6.56,6.56,0,0,1-2.82,2.62,9.54,9.54,0,0,1-4.26.91h-5V83.64h5A9.28,9.28,0,0,1,442.45,84.57Zm-.17,10.8a5.55,5.55,0,0,0,1.43-4.07,5.75,5.75,0,0,0-1.43-4.14,5.38,5.38,0,0,0-4.09-1.48h-2.47V96.81h2.47A5.48,5.48,0,0,0,442.28,95.37Z"/><path class="cls-2" d="M490.17,83.64V98.85h-2.49V83.64Z"/><path class="cls-2" d="M544.89,98.85H542.4l-7.51-11.36V98.85H532.4V83.62h2.49L542.4,95V83.62h2.49Z"/><path class="cls-2" d="M598.12,88a4.07,4.07,0,0,0-1.64-1.72,4.91,4.91,0,0,0-2.43-.58,5.32,5.32,0,0,0-2.69.68,4.69,4.69,0,0,0-1.85,1.92,6.59,6.59,0,0,0,0,5.79,4.74,4.74,0,0,0,1.85,1.94,5.32,5.32,0,0,0,2.69.67,4.74,4.74,0,0,0,3.3-1.13,4.89,4.89,0,0,0,1.55-3.09h-5.7v-2h8.37v1.95a7.57,7.57,0,0,1-1.25,3.26A7.53,7.53,0,0,1,594.05,99a7.8,7.8,0,0,1-3.92-1,7.37,7.37,0,0,1-2.81-2.76,8.23,8.23,0,0,1,0-8,7.36,7.36,0,0,1,2.82-2.77,8.33,8.33,0,0,1,8.23.2A6.71,6.71,0,0,1,601.11,88Z"/><g class="cls-3"><rect class="cls-2" x="0.49" y="0.03" width="105.01" height="94.4"/></g></svg>