<svg id="Layer_1" data-name="Layer 1" xmlns="http://www.w3.org/2000/svg" xmlns:xlink="http://www.w3.org/1999/xlink" viewBox="0 0 605 100"><defs><style>.cls-1{fill:none;}.cls-2{fill:#fff;}.cls-3{fill:#e26ee5;}.cls-4{clip-path:url(#clip-path);}.cls-5{fill:url(#linear-gradient);}</style><clipPath id="clip-path"><path class="cls-1" d="M61.28,52.75H18.87A11.5,11.5,0,0,1,30.39,41.31l19.29,0L34.59,26.65h-6A25.16,25.16,0,0,0,3.46,51.81V67.46H69.79A10.08,10.08,0,0,1,59.73,77.52l-56.27.1V93.16H63.07A20.85,20.85,0,0,0,83.74,75C83.85,74.11,61.28,52.75,61.28,52.75ZM81.66,41.22A26.37,26.37,0,0,0,105.56,15V1.31H18L33.05,16.59h57a9.59,9.59,0,0,1-9.47,9.59l-37.32.47L58,41.34h4.4L87.84,66.79l19-.41Z"/></clipPath><linearGradient id="linear-gradient" x1="5.06" y1="96.78" x2="104.13" y2="-2.29" gradientUnits="userSpaceOnUse"><stop offset="0" stop-color="#7e30e1"/><stop offset="0.17" stop-color="#8535e1"/><stop offset="0.41" stop-color="#9a41e2"/><stop offset="0.71" stop-color="#bb56e3"/><stop offset="1" stop-color="#e26ee5"/></linearGradient></defs><path class="cls-2" d="M127.22,67.94q-6.07-4.5-6.54-12.89h16.09a6,6,0,0,0,1.69,4.15,5.41,5.41,0,0,0,3.77,1.31,5.47,5.47,0,0,0,3.43-1A3.43,3.43,0,0,0,147,56.58a4.08,4.08,0,0,0-2.24-3.69A39.76,39.76,0,0,0,137.54,50,65.81,65.81,0,0,1,129,46.54a16.47,16.47,0,0,1-5.69-4.85,13.45,13.45,0,0,1-2.43-8.36,15.17,15.17,0,0,1,2.62-9,16.15,16.15,0,0,1,7.24-5.66,26.81,26.81,0,0,1,10.47-1.93q9.47,0,15.12,4.43t6.05,12.43h-16.4a4.82,4.82,0,0,0-1.5-3.69,5.4,5.4,0,0,0-3.66-1.23,3.9,3.9,0,0,0-2.77,1,3.66,3.66,0,0,0-1.08,2.84,3.53,3.53,0,0,0,1.19,2.66,11,11,0,0,0,3,1.93c1.18.53,2.92,1.22,5.23,2a63.44,63.44,0,0,1,8.51,3.5,17.25,17.25,0,0,1,5.77,4.85A12.46,12.46,0,0,1,163,55.43a16,16,0,0,1-2.43,8.7,16.6,16.6,0,0,1-7,6.08,24.45,24.45,0,0,1-10.82,2.23Q133.31,72.44,127.22,67.94Z"/><path class="cls-2" d="M204.36,63.05H185.12l-2.93,8.86H166.33l19.79-54.28h17.4l19.7,54.28H207.29ZM200.59,51.5,194.74,34,189,51.5Z"/><path class="cls-2" d="M243.24,60.36H260.1V71.91h-32V17.63h15.09Z"/><path class="cls-2" d="M281,29.72v8.85h17.32V50H281v9.78h19.63V71.91H266V17.63h34.72V29.72Z"/><path class="cls-2" d="M323.23,29.72v8.85h17.32V50H323.23v9.78h19.63V71.91H308.14V17.63h34.72V29.72Z"/><path class="cls-2" d="M413.69,17.63V71.91H398.6V42L388.36,71.91H375.73L365.42,41.73V71.91H350.33V17.63h18.24L382.2,52.89l13.32-35.26Z"/><path class="cls-2" d="M452.8,71.91,439.48,49.43h-9.93V71.91h-5.39V18.09h16.17q9,0,13.66,4.31a14.7,14.7,0,0,1,4.66,11.32,15.32,15.32,0,0,1-3.35,10Q452,47.82,445.41,49l13.86,22.87ZM429.55,45H440.4q6.32,0,9.51-3.08a10.93,10.93,0,0,0,3.2-8.24c0-3.54-1-6.28-3.08-8.2s-5.29-2.89-9.7-2.89H429.55Z"/><path class="cls-2" d="M500.53,59.13H476.05l-4.7,12.78h-5.69l19.63-53.13h6.08l19.55,53.13h-5.69Zm-1.62-4.47-10.62-29.1-10.62,29.1Z"/><path class="cls-2" d="M523,67.13H550.5v4.78H516.7V67.59l27.1-44.73H517.16V18.09h33V22.4Z"/><path class="cls-2" d="M591.14,59.13H566.66L562,71.91h-5.7L575.9,18.78H582l19.56,53.13h-5.7Zm-1.61-4.47L578.9,25.56l-10.62,29.1Z"/><path class="cls-3" d="M130.68,83.43v2h-6.42V89.9h5v2h-5v6.6h-2.47V83.43Z"/><path class="cls-3" d="M174.15,83.43v15.1h-2.48V83.43Z"/><path class="cls-3" d="M225.86,83.43v2h-4V98.53h-2.48V85.45h-4v-2Z"/><path class="cls-3" d="M267.26,87a7.35,7.35,0,0,1,2.81-2.75,7.8,7.8,0,0,1,3.88-1,7.89,7.89,0,0,1,4.29,1.19A6.77,6.77,0,0,1,281,87.77h-3A4,4,0,0,0,276.36,86,4.86,4.86,0,0,0,274,85.4a5.29,5.29,0,0,0-2.68.68A4.67,4.67,0,0,0,269.44,88a6.76,6.76,0,0,0,0,5.87,4.79,4.79,0,0,0,1.83,2,5.29,5.29,0,0,0,2.68.68,4.86,4.86,0,0,0,2.41-.58A4.07,4.07,0,0,0,278,94.14h3a6.73,6.73,0,0,1-2.73,3.35A8,8,0,0,1,274,98.66a7.85,7.85,0,0,1-3.9-1,7.29,7.29,0,0,1-2.79-2.75,8.19,8.19,0,0,1,0-8Z"/><path class="cls-3" d="M325.56,97.7a7.28,7.28,0,0,1-2.8-2.76,8.15,8.15,0,0,1,0-8,7.32,7.32,0,0,1,2.8-2.75,8.14,8.14,0,0,1,7.78,0,7.39,7.39,0,0,1,2.8,2.75,8.29,8.29,0,0,1,0,8,7.35,7.35,0,0,1-2.8,2.76,8.14,8.14,0,0,1-7.78,0Zm6.55-1.85a4.71,4.71,0,0,0,1.84-2A6.88,6.88,0,0,0,334,88a4.63,4.63,0,0,0-1.84-1.93,5.58,5.58,0,0,0-5.34,0A4.63,4.63,0,0,0,324.93,88a6.88,6.88,0,0,0,0,5.88,4.71,4.71,0,0,0,1.84,2,5.58,5.58,0,0,0,5.34,0Z"/><path class="cls-3" d="M387.45,84.35a6.64,6.64,0,0,1,2.8,2.65,8,8,0,0,1,1,4,7.78,7.78,0,0,1-1,4,6.52,6.52,0,0,1-2.8,2.6,9.41,9.41,0,0,1-4.23.9h-4.94V83.43h4.94A9.15,9.15,0,0,1,387.45,84.35Zm-.17,10.73a5.55,5.55,0,0,0,1.42-4,5.69,5.69,0,0,0-1.42-4.1,5.33,5.33,0,0,0-4.06-1.48h-2.46V96.51h2.46A5.46,5.46,0,0,0,387.28,95.08Z"/><path class="cls-3" d="M441.55,84.35a6.64,6.64,0,0,1,2.8,2.65,8,8,0,0,1,1,4,7.78,7.78,0,0,1-1,4,6.52,6.52,0,0,1-2.8,2.6,9.41,9.41,0,0,1-4.23.9h-4.93V83.43h4.93A9.15,9.15,0,0,1,441.55,84.35Zm-.16,10.73a5.54,5.54,0,0,0,1.41-4,5.69,5.69,0,0,0-1.41-4.1,5.36,5.36,0,0,0-4.07-1.48h-2.45V96.51h2.45A5.5,5.5,0,0,0,441.39,95.08Z"/><path class="cls-3" d="M489,83.43v15.1h-2.48V83.43Z"/><path class="cls-3" d="M543.33,98.53h-2.47L533.4,87.25V98.53h-2.48V83.4h2.48l7.46,11.26V83.4h2.47Z"/><path class="cls-3" d="M596.22,87.77a3.94,3.94,0,0,0-1.63-1.7,4.86,4.86,0,0,0-2.41-.58,5.31,5.31,0,0,0-2.68.68,4.62,4.62,0,0,0-1.83,1.91A5.88,5.88,0,0,0,587,91a6,6,0,0,0,.67,2.88,4.71,4.71,0,0,0,1.83,1.92,5.31,5.31,0,0,0,2.68.67,4.71,4.71,0,0,0,3.28-1.13A4.9,4.9,0,0,0,597,92.23h-5.67v-2h8.32v1.94a7.46,7.46,0,0,1-7.47,6.47,7.79,7.79,0,0,1-3.89-1,7.25,7.25,0,0,1-2.8-2.75,8.19,8.19,0,0,1,0-8,7.42,7.42,0,0,1,2.81-2.75,8.22,8.22,0,0,1,8.17.2,6.77,6.77,0,0,1,2.73,3.35Z"/><g class="cls-4"><rect class="cls-5" x="2.43" y="0.35" width="104.34" height="93.79"/></g></svg>